<svg width="1728" height="492" viewBox="0 0 1728 492" fill="none" xmlns="http://www.w3.org/2000/svg">
<path d="M0 124.953L107.447 50.2925C177.483 1.62758 271.954 8.29118 334.465 66.3054L364.107 93.8143C421.676 147.242 511.758 143.507 564.706 85.4966C618.267 26.816 709.649 23.7763 766.99 78.7679L781.725 92.899C838.442 147.291 928.239 146.353 983.807 90.7879C1033.5 41.097 1111.75 34.3892 1169.17 74.8974L1183.54 85.0294C1250.81 132.481 1342.74 123.202 1399.17 63.2642L1406.2 55.7931C1460.32 -1.69294 1545.96 -16.4137 1616.17 19.6999L1728 77.2204V491.998H0V124.953Z" fill="url(#paint0_linear_135902_3)"/>
<defs>
<linearGradient id="paint0_linear_135902_3" x1="0" y1="225.355" x2="1728" y2="225.355" gradientUnits="userSpaceOnUse">
<stop stop-color="#9AD2D5"/>
<stop offset="0.5" stop-color="#016A70"/>
<stop offset="1" stop-color="#9AD2D5"/>
</linearGradient>
</defs>
</svg>
