<svg width="1728" height="487" viewBox="0 0 1728 487" fill="none" xmlns="http://www.w3.org/2000/svg">
<path d="M0 0L113.914 65.0083C184.753 105.435 272.206 103.062 340.749 58.8539C398.233 21.7789 469.756 13.7482 534.03 37.1523L560.044 46.6247C619.874 68.4107 685.548 67.9334 745.055 45.2801L758.215 40.2702C825.085 14.8144 899.896 21.1036 961.577 57.3664C1036.04 101.146 1128.49 100.695 1202.52 56.1904L1205.93 54.1443C1263.39 19.6011 1332.6 10.398 1397.09 28.7225L1426.26 37.0097C1481.92 52.8252 1540.89 52.8682 1596.58 37.1337L1728 0V487.199H0V0Z" fill="url(#paint0_linear_135902_4)" fill-opacity="0.8"/>
<defs>
<linearGradient id="paint0_linear_135902_4" x1="0" y1="243.6" x2="1728" y2="243.6" gradientUnits="userSpaceOnUse">
<stop stop-color="#016A70"/>
<stop offset="0.5" stop-color="#016A70"/>
<stop offset="1" stop-color="#016A70"/>
</linearGradient>
</defs>
</svg>
